<?xml version="1.0" encoding="UTF-8" standalone="no"?>
<!-- Created with Inkscape (http://www.inkscape.org/) -->

<svg
   xmlns:dc="http://purl.org/dc/elements/1.1/"
   xmlns:cc="http://creativecommons.org/ns#"
   xmlns:rdf="http://www.w3.org/1999/02/22-rdf-syntax-ns#"
   xmlns:svg="http://www.w3.org/2000/svg"
   xmlns="http://www.w3.org/2000/svg"
   xmlns:sodipodi="http://sodipodi.sourceforge.net/DTD/sodipodi-0.dtd"
   xmlns:inkscape="http://www.inkscape.org/namespaces/inkscape"
   width="135"
   height="135"
   id="svg2989"
   version="1.1"
   inkscape:version="0.48.4 r9939"
   sodipodi:docname="FullAmoeba.svg"
   inkscape:export-filename="C:\Users\Anthony\Desktop\Projects\NaturalSelection\ActualGame\EvolutionJam\Assets\Sprites\FullAmoeba.png"
   inkscape:export-xdpi="682.66998"
   inkscape:export-ydpi="682.66998">
  <defs
     id="defs2991" />
  <sodipodi:namedview
     id="base"
     pagecolor="#ffffff"
     bordercolor="#666666"
     borderopacity="1.0"
     inkscape:pageopacity="0.0"
     inkscape:pageshadow="2"
     inkscape:zoom="22.627418"
     inkscape:cx="109.44483"
     inkscape:cy="88.853162"
     inkscape:document-units="px"
     inkscape:current-layer="layer1"
     showgrid="false"
     units="px"
     inkscape:window-width="1600"
     inkscape:window-height="837"
     inkscape:window-x="-8"
     inkscape:window-y="-8"
     inkscape:window-maximized="1"
     inkscape:snap-bbox="true"
     inkscape:bbox-paths="true"
     inkscape:bbox-nodes="true"
     inkscape:snap-bbox-edge-midpoints="true"
     inkscape:snap-bbox-midpoints="true"
     inkscape:snap-global="false"
     showguides="true"
     inkscape:guide-bbox="true" />
  <metadata
     id="metadata2994">
    <rdf:RDF>
      <cc:Work
         rdf:about="">
        <dc:format>image/svg+xml</dc:format>
        <dc:type
           rdf:resource="http://purl.org/dc/dcmitype/StillImage" />
        <dc:title></dc:title>
      </cc:Work>
    </rdf:RDF>
  </metadata>
  <g
     inkscape:label="Layer 1"
     inkscape:groupmode="layer"
     id="layer1"
     transform="translate(0,-917.3598)">
    <path
       style="fill:#31a2f2;stroke:none"
       d="m 12.763269,1047.9378 -0.29347,0.9668 0.39705,-0.1726 0.14674,-0.4575 z"
       id="path4227"
       inkscape:connector-curvature="0" />
    <path
       style="fill:#e2c20c;fill-opacity:1;stroke:none"
       d="m 8.3524892,1047.9723 0.26758,-0.2676 0.33663,-0.6646 0.11221,-0.5265 0.75959,0.9581 0.5265298,-0.06 0.5438,0.01 0.3539,-0.5956 0.31074,-0.3625 0.18126,0.5524 0.13811,0.5438 0.58696,0.1899 0.15537,0.1467 -1.95939,0.8028 -1.9248698,-0.1468 -0.40569,-0.6214 z"
       id="path4223"
       inkscape:connector-curvature="0"
       sodipodi:nodetypes="ccccccccccccccccc" />
    <path
       style="fill:#727272;fill-opacity:1;stroke:none"
       d="m 124.74876,926.9717 0.0473,2.5037 1.27897,-2.3652 -0.29422,-0.3599 -0.55441,-0.165 z"
       id="path3127-1-7-9-4-8-8"
       inkscape:connector-curvature="0" />
    <path
       style="fill:#727272;fill-opacity:1;stroke:none"
       d="m 122.81207,924.8666 -2.33231,0.9116 2.66183,0.3805 0.23567,-0.4007 -0.0372,-0.5772 z"
       id="path3127-1-7-9-4-8"
       inkscape:connector-curvature="0" />
    <path
       style="fill:#727272;fill-opacity:1;stroke:none"
       d="m 127.32321,925.5223 1.93966,-1.5838 -2.65004,0.4553 -0.10125,0.4537 0.2127,0.5379 z"
       id="path3127-1-7-9-4"
       inkscape:connector-curvature="0" />
    <path
       style="fill:#727272;fill-opacity:1;stroke:none"
       d="m 125.68391,923.0974 -0.89551,-2.3385 -0.39883,2.6591 0.39904,0.2385 0.57749,-0.033 z"
       id="path3127-1-7-9"
       inkscape:connector-curvature="0" />
    <path
       sodipodi:type="arc"
       style="fill:#f0eef0;fill-opacity:1;fill-rule:nonzero;stroke:none"
       id="path3864"
       sodipodi:cx="40.982143"
       sodipodi:cy="26.919643"
       sodipodi:rx="2.7232144"
       sodipodi:ry="2.7232144"
       d="m 43.705358,26.919643 c 0,1.50399 -1.219225,2.723215 -2.723215,2.723215 -1.503989,0 -2.723214,-1.219225 -2.723214,-2.723215 0,-1.503989 1.219225,-2.723214 2.723214,-2.723214 1.50399,0 2.723215,1.219225 2.723215,2.723214 z"
       transform="matrix(0.53044506,0,0,0.53044506,-19.839296,904.85771)" />
    <path
       sodipodi:type="arc"
       style="fill:#000000;fill-opacity:1;fill-rule:nonzero;stroke:none"
       id="path3868"
       sodipodi:cx="40.535713"
       sodipodi:cy="26.25"
       sodipodi:rx="1.25"
       sodipodi:ry="1.25"
       d="m 41.785713,26.25 c 0,0.690356 -0.559644,1.25 -1.25,1.25 -0.690356,0 -1.25,-0.559644 -1.25,-1.25 0,-0.690356 0.559644,-1.25 1.25,-1.25 0.690356,0 1.25,0.559644 1.25,1.25 z"
       transform="matrix(0.40872996,0,0,0.40872996,-11.96228,908.3552)" />
    <path
       transform="matrix(0.75775838,0,0,0.75775838,-7.035747,880.70181)"
       sodipodi:type="arc"
       style="fill:#9fdced;fill-opacity:0.6755319;fill-rule:nonzero;stroke:none"
       id="path3762-9"
       sodipodi:cx="94.10714"
       sodipodi:cy="58.214287"
       sodipodi:rx="5.7142859"
       sodipodi:ry="5.7142859"
       d="m 99.821425,58.214287 c 0,3.155913 -2.558372,5.714286 -5.714285,5.714286 -3.155913,0 -5.714286,-2.558373 -5.714286,-5.714286 0,-3.155913 2.558373,-5.714286 5.714286,-5.714286 3.155913,0 5.714285,2.558373 5.714285,5.714286 z" />
    <path
       style="fill:#d1eef6;fill-opacity:1;stroke:none"
       d="m 65.026477,921.43139 0.08645,0.95088 -1.642563,0.0865 -1.037405,0.69162 -1.296759,1.38316 0.778055,-1.64258 1.037407,-1.03737 z"
       id="path3770-4"
       inkscape:connector-curvature="0" />
    <path
       sodipodi:type="arc"
       style="fill:#e4e4e4;fill-opacity:0.5106383;fill-rule:nonzero;stroke:none"
       id="path2994"
       sodipodi:cx="101.11627"
       sodipodi:cy="24.161011"
       sodipodi:rx="35.88567"
       sodipodi:ry="35.88567"
       d="m 137.00194,24.161011 c 0,19.819108 -16.06656,35.885669 -35.88567,35.885669 -19.819106,0 -35.885668,-16.066561 -35.885668,-35.885669 0,-19.8191084 16.066562,-35.88567 35.885668,-35.88567 19.81911,0 35.88567,16.0665616 35.88567,35.88567 z"
       transform="matrix(0.4358445,0,0,0.4358445,-12.723656,923.97923)" />
    <path
       transform="matrix(0.40872996,0,0,0.40872996,11.654491,1011.331)"
       sodipodi:type="arc"
       style="fill:#9d9d9d;fill-opacity:1;fill-rule:nonzero;stroke:none"
       id="path2982-1-3"
       sodipodi:cx="46.719555"
       sodipodi:cy="37.772816"
       sodipodi:rx="11.616755"
       sodipodi:ry="11.616755"
       d="m 58.336309,37.772816 c 0,6.415756 -5.200998,11.616754 -11.616754,11.616754 -6.415756,0 -11.616755,-5.200998 -11.616755,-11.616754 0,-6.415757 5.200999,-11.616755 11.616755,-11.616755 6.415756,0 11.616754,5.200998 11.616754,11.616755 z" />
    <path
       inkscape:connector-curvature="0"
       style="fill:#e4e4e4;fill-opacity:1;fill-rule:nonzero;stroke:none"
       d="m 32.39094,1022.252 -5.991211,7.2754 c 0.295133,0.4509 0.666909,0.8295 1.09375,1.1563 l 6.05371,-7.8067 c -0.350694,-0.2596 -0.740864,-0.469 -1.156249,-0.625 z m 2.187499,1.6563 -4.531249,7.6152 c 0.223553,0.032 0.455007,0.062 0.6875,0.062 l 0.03125,0 4.187499,-7.0215 c -0.11338,-0.2241 -0.22885,-0.4542 -0.375,-0.6562 z"
       id="path2982-1-3-3"
       sodipodi:nodetypes="cccccccsccc" />
    <path
       style="fill:#727272;fill-opacity:1;stroke:none"
       d="m 35.411919,1027.5525 -0.82111,1.0766 c 0,0 -0.8576,0.8393 -0.93059,0.8758 -0.073,0.037 -1.459749,0.5474 -1.459749,0.5474 0,0 -0.967084,0.3649 -1.131306,0.3832 -0.164222,0.018 -1.550983,0.1095 -1.660464,0.091 -0.109482,-0.018 -0.839356,-0.2555 -0.985332,-0.3284 -0.145975,-0.073 -0.63864,-0.2373 -0.784615,-0.2737 -0.145975,-0.037 -0.52916,-0.037 -0.52916,-0.037 l 0.419679,0.5291 0.839356,0.4927 c 0,0 2.04365,0.6751 2.116637,0.6751 0.07299,0 0.69338,-0.036 0.912343,-0.055 0.218962,-0.018 2.244361,-0.7299 2.244361,-0.7299 0,0 0.25546,-0.3467 0.38319,-0.4561 0.12773,-0.1095 0.56565,-0.6387 0.56565,-0.6387 0,0 0.3102,-0.4927 0.38319,-0.6021 0.073,-0.1095 0.45617,-1.1496 0.45617,-1.1496 z"
       id="path3754-7-4"
       inkscape:connector-curvature="0" />
    <path
       style="fill:#cacaca;fill-opacity:1;stroke:none"
       d="m 29.872805,1022.125 0.438684,0.929 0.02581,0.6193 0.07742,1.0064 -0.258049,0.8774 c 0,0 -0.283855,0.6193 -0.41288,0.6709 -0.129025,0.052 -0.903174,0.3355 -1.006394,0.3613 -0.10322,0.026 -1.058004,0.1806 -1.161224,0.1806 -0.10322,0 -0.87737,-0.2064 -0.87737,-0.2064 l -0.619319,-0.2839 -0.180634,0 c 0,0 -0.07742,0.1548 -0.07742,0.3097 0,0.1548 0.103219,0.4903 0.103219,0.4903 l 0,0.4903 0.180635,0.1806 0.387075,-0.2581 0.954784,-0.1032 1.083809,-0.052 0.670929,0 0.593515,0.3613 0.232244,0.8257 c 0,0 0.02581,0.8258 0,0.929 -0.0258,0.1032 -0.490294,0.6452 -0.490294,0.6452 l -0.20644,0.5419 -0.464489,0.4386 0.02581,0.1549 0.258049,0.1032 0.232245,0.077 0.438685,-0.026 0.05161,-0.2064 0.335465,-0.7742 0.20644,-0.5935 0.361269,-0.4129 0.464489,-0.5677 0.20644,-0.5161 0.464489,-0.3097 0.903175,-0.3096 0.567707,-0.077 0.85157,-0.052 0.46449,0.129 0.46449,0.3097 0.18063,0.077 0.18063,-0.1291 0,-0.258 0.20644,-0.4645 -0.23224,-0.3355 -0.36127,0.052 -0.41288,0.026 c 0,0 -0.74834,-0.052 -0.90317,-0.077 -0.15483,-0.026 -1.058007,0 -1.212837,-0.026 -0.15483,-0.026 -0.774149,-0.3354 -0.903174,-0.4386 -0.129025,-0.1033 -0.46449,-0.7742 -0.541905,-0.9032 -0.07741,-0.129 -0.180635,-1.1354 -0.206439,-1.2387 -0.02581,-0.1032 0,-0.5677 -0.05161,-0.8773 -0.05161,-0.3097 -0.05161,-0.5935 -0.05161,-0.6968 0,-0.1032 0.05161,-0.4128 0,-0.5161 -0.05161,-0.1032 -0.206439,-0.3354 -0.206439,-0.3354 l -0.335464,0 -0.361269,0.077 z"
       id="path2984-4-11"
       inkscape:connector-curvature="0" />
    <path
       sodipodi:type="arc"
       style="fill:#9d9d9d;fill-opacity:1;fill-rule:nonzero;stroke:none"
       id="path4135"
       sodipodi:cx="22.649513"
       sodipodi:cy="57.038715"
       sodipodi:rx="6.2493324"
       sodipodi:ry="6.2493324"
       d="m 28.898846,57.038715 c 0,3.451411 -2.797922,6.249333 -6.249333,6.249333 -3.451411,0 -6.249332,-2.797922 -6.249332,-6.249333 0,-3.451411 2.797921,-6.249332 6.249332,-6.249332 3.451411,0 6.249333,2.797921 6.249333,6.249332 z"
       transform="matrix(1.1430689,0,0,1.1430689,-15.26443,948.35422)" />
    <path
       inkscape:connector-curvature="0"
       style="fill:#e4e4e4;fill-opacity:1;fill-rule:nonzero;stroke:none"
       d="m 13.071619,1006.6006 -8.8242893,10.7158 c 0.434692,0.664 0.982272,1.2216 1.610954,1.7029 l 8.9163443,-11.4981 c -0.516529,-0.3825 -1.0912,-0.6909 -1.703009,-0.9206 z m 3.221908,2.4395 -7.1080845,11.6898 c 0.329264,0.048 0.670167,0.093 1.0126015,0.093 l 0.04603,0 6.601784,-10.8154 c -0.16699,-0.3301 -0.337072,-0.669 -0.552327,-0.9665 z"
       id="path2982-1-3-3-7"
       sodipodi:nodetypes="cccccccscccc" />
    <path
       style="fill:#a5a5a5;fill-opacity:1;fill-rule:nonzero;stroke:none"
       d="m 10.94425,1024.2254 c -4.9042553,0 -8.8945053,3.9545 -8.8945053,8.8588 0,4.9042 3.99025,8.8944 8.8945053,8.8944 4.904255,0 8.894505,-3.9902 8.894505,-8.8944 0,-4.9043 -3.99025,-8.8588 -8.894505,-8.8588 z m 0,1.7146 c 3.945201,0 7.144181,3.199 7.144181,7.1442 0,3.9452 -3.19898,7.1442 -7.144181,7.1442 -3.9452003,0 -7.1441803,-3.199 -7.1441803,-7.1442 0,-3.9452 3.19898,-7.1442 7.1441803,-7.1442 z"
       id="path4135-9"
       inkscape:connector-curvature="0" />
    <path
       style="fill:#e4e4e4;fill-opacity:1;fill-rule:nonzero;stroke:none"
       d="m 13.714853,1024.6183 -1.270325,1.5901 c 0.8351,0.1885 1.625876,0.5119 2.321859,0.9645 l 1.127441,-1.4472 c -0.670723,-0.4506 -1.395581,-0.851 -2.178975,-1.1074 z m 4.185485,2.8096 -1.103999,1.747 c 0.258178,0.3913 0.464789,0.8104 0.642976,1.2503 l 1.211162,-1.8898 c -0.08451,-0.1672 -0.160736,-0.3337 -0.250046,-0.5001 -0.02332,-0.034 -0.04765,-0.073 -0.07144,-0.1075 -0.1233,-0.1782 -0.292924,-0.3317 -0.428651,-0.5001 z m -13.5086413,8.4782 -1.312185,1.5839 c 0.487516,0.8659 1.119683,1.6303 1.857487,2.2862 l 1.169301,-1.4411 c -0.728959,-0.6697 -1.313301,-1.509 -1.714603,-2.429 z m 5.7867863,4.2508 -0.9722783,1.705 c 0.4291558,0.087 0.8728153,0.1567 1.3216733,0.1787 l 1.043721,-1.8837 c -0.206767,0.018 -0.431547,0.036 -0.642977,0.036 -0.258633,0 -0.498611,-0.012 -0.750139,-0.036 z"
       id="path4135-9-1"
       inkscape:connector-curvature="0"
       sodipodi:nodetypes="ccccccccccccccccccccccsc" />
    <path
       sodipodi:type="arc"
       style="fill:#bababa;fill-opacity:1;fill-rule:nonzero;stroke:none"
       id="path3125"
       sodipodi:cx="7.4232402"
       sodipodi:cy="42.77919"
       sodipodi:rx="2.3132887"
       sodipodi:ry="2.3132887"
       d="m 9.7365289,42.77919 c 0,1.277594 -1.0356947,2.313289 -2.3132887,2.313289 -1.2775941,0 -2.3132887,-1.035695 -2.3132887,-2.313289 0,-1.277594 1.0356946,-2.313289 2.3132887,-2.313289 1.277594,0 2.3132887,1.035695 2.3132887,2.313289 z"
       transform="matrix(1.3966356,0,0,1.3966356,114.99097,865.75587)" />
    <path
       style="fill:#727272;fill-opacity:1;stroke:none"
       d="m 126.10677,923.1113 2.52322,-1.6196 -1.22751,2.5232 -0.61376,0.017 -0.64785,-0.3068 z"
       id="path3127"
       inkscape:connector-curvature="0" />
    <path
       style="fill:#727272;fill-opacity:1;stroke:none"
       d="m 124.88409,927.102 -2.2641,1.9656 0.85193,-2.6735 0.60492,-0.1051 0.68525,0.2105 z"
       id="path3127-1"
       inkscape:connector-curvature="0" />
    <path
       style="fill:#8f8f8f;fill-opacity:1;stroke:none"
       d="m 128.55732,925.193 -0.83727,1.3293 -0.59563,0.8136 -1.09264,0.7742 -1.35427,0.208 -0.9078,0.012 1.04555,0.4143 1.35109,0.022 0.91564,-0.4216 0.57703,-0.3685 0.4289,-0.4787 0.25361,-0.4921 0.24619,-0.7732 z"
       id="path4059"
       inkscape:connector-curvature="0"
       sodipodi:nodetypes="cccccccccccccc" />
    <path
       style="fill:#727272;fill-opacity:1;stroke:none"
       d="m 127.52891,926.6963 2.46922,0.4168 -2.08772,-1.6945 -0.40811,0.2225 -0.26478,0.5143 z"
       id="path3127-1-7"
       inkscape:connector-curvature="0" />
    <path
       style="fill:#727272;fill-opacity:1;stroke:none"
       d="m 123.5875,923.0128 -1.73496,-0.9188 1.14521,1.7933 0.35661,-0.069 0.32003,-0.3248 z"
       id="path3127-1-7-4"
       inkscape:connector-curvature="0" />
    <path
       style="fill:#727272;fill-opacity:1;stroke:none"
       d="m 125.8808,927.9993 0.98176,1.7002 -0.0176,-2.1278 -0.33872,-0.131 -0.44369,0.1052 z"
       id="path3127-1-7-4-0"
       inkscape:connector-curvature="0" />
    <path
       style="fill:#727272;fill-opacity:1;stroke:none"
       d="m 125.19843,924.3667 -0.50753,-1.0215 -0.072,1.3863 0.19272,0.055 0.26313,-0.1081 z"
       id="path3127-1-7-4-2"
       inkscape:connector-curvature="0" />
    <path
       transform="matrix(1.0615611,0,0,1.0615611,-21.548014,864.30809)"
       sodipodi:type="arc"
       style="fill:#4b25c2;fill-opacity:0.6755319;fill-rule:nonzero;stroke:none"
       id="path3762-9-9"
       sodipodi:cx="94.10714"
       sodipodi:cy="58.214287"
       sodipodi:rx="5.7142859"
       sodipodi:ry="5.7142859"
       d="m 99.821425,58.214287 c 0,3.155913 -2.558372,5.714286 -5.714285,5.714286 -3.155913,0 -5.714286,-2.558373 -5.714286,-5.714286 0,-3.155913 2.558373,-5.714286 5.714286,-5.714286 3.155913,0 5.714285,2.558373 5.714285,5.714286 z" />
    <path
       style="fill:#d6cbf5;fill-opacity:0.67451022;stroke:none"
       d="m 78.963672,921.27871 0.121106,1.33211 -2.301104,0.12116 -1.453325,0.96891 -1.81666,1.9377 1.089995,-2.30113 1.453328,-1.45328 z"
       id="path3770-4-8"
       inkscape:connector-curvature="0" />
    <path
       style="fill:#4421ad;fill-opacity:0.60638296;stroke:none"
       d="m 81.632444,921.82512 -0.40625,0.15625 -0.09375,0.40625 0.15625,0.40625 -0.34375,0.375 -0.375,0.46875 -0.40625,0.375 c -0.0095,-0.0137 -0.02337,-0.0546 -0.03125,-0.0625 l -0.4375,-0.4375 -0.40625,-0.3125 c -0.110486,0 -0.747779,-0.0625 -0.96875,-0.0625 -0.220971,0 -0.911612,0.0587 -1,0.125 -0.08433,0.0633 -0.623159,0.40718 -0.75,0.5 l -0.34375,-0.5625 0.09375,-0.34375 -0.21875,-0.34375 c 0,0 -0.344817,-0.15625 -0.4375,-0.15625 -0.09268,0 -0.414329,0.18921 -0.4375,0.28125 -0.02317,0.092 -0.03125,0.32246 -0.03125,0.4375 0,0.11504 -0.21875,0.0937 -0.21875,0.0937 l -0.3125,0.0312 c 0,0 -0.203659,0.0807 -0.25,0.21875 -0.04634,0.13805 -0.09268,0.22871 0,0.34375 0.09268,0.11504 0.282317,0.28949 0.375,0.3125 0.09268,0.023 0.5625,0.0937 0.5625,0.0937 l 0.5,0.3125 c -0.01911,0.098 -0.1158,0.61763 -0.15625,0.71875 -0.04419,0.11049 -0.05334,0.41161 -0.03125,0.5 0.0221,0.0884 0.246208,0.89867 0.3125,1.03125 0.06629,0.13258 0.380362,0.56407 0.46875,0.71875 0.01224,0.0214 0.01925,0.0644 0.03125,0.0937 -0.04592,0.0487 -0.175197,0.17834 -0.1875,0.1875 -0.09268,0.069 -0.8125,0.65625 -0.8125,0.65625 l -0.71875,0.53125 -0.3125,-0.1875 -0.5,0.15625 -0.09375,0.34375 0.09375,0.28125 0.46875,0.0937 0.1875,0.3125 c 0,0 -0.09268,0.01 0,0.125 0.09268,0.11504 0.344817,0.22699 0.4375,0.25 0.09268,0.023 0.34375,-0.0312 0.34375,-0.0312 0,0 0.149237,-0.10367 0.21875,-0.21875 0.06951,-0.11504 0.125,-0.46875 0.125,-0.46875 l 0.03125,-0.34375 0.5,-0.4375 c 0,0 0.170587,-0.2182 0.34375,-0.40625 l 0,0.6875 0.40625,0.46875 0.5,0.15625 0.75,0 c 0.154679,0 0.630362,-0.009 0.71875,-0.0312 0.08839,-0.0221 0.5,-0.34375 0.5,-0.34375 0,0 0.196653,-0.18907 0.21875,-0.34375 0.0221,-0.15468 0.09375,-0.56786 0.09375,-0.65625 l 0,-0.0937 c 0.162319,0.2149 0.4375,0.59375 0.4375,0.59375 l 0.71875,0.46875 0.15625,0.59375 c 0,0 -0.133079,0.28297 -0.15625,0.375 -0.02317,0.092 -0.03125,0.40625 -0.03125,0.40625 l 0.375,0.0625 0.4375,0 0.15625,-0.21875 0.0625,-0.46875 0.3125,-0.0937 0.3125,-0.15625 0.09375,-0.40625 -0.21875,-0.375 -0.46875,-0.15625 -0.28125,0.0312 -0.3125,-0.21875 -0.53125,-0.53125 -0.4375,-0.625 -0.375,-0.40625 c 0.08646,-0.11037 0.197593,-0.27387 0.25,-0.34375 0.06629,-0.0884 0.259153,-0.38036 0.28125,-0.46875 0.0221,-0.0884 0.0625,-0.51072 0.0625,-0.6875 0,-0.158 -0.07469,-0.59902 -0.125,-0.8125 l 0.9375,-0.875 0.3125,-0.34375 0.53125,-0.15625 c 0,0 0.313567,-0.0477 0.40625,-0.0937 0.09268,-0.046 0.21875,-0.34375 0.21875,-0.34375 l -0.21875,-0.40625 -0.3125,-0.125 -0.28125,0.0937 0,-0.28125 -0.125,-0.34375 -0.34375,-0.0937 z"
       id="path4502"
       inkscape:connector-curvature="0" />
    <path
       style="fill:#000000;fill-opacity:0.47849462;stroke:none"
       d="m 64.37496,936.62972 c 0,0 -0.512696,-0.12207 -0.634766,-0.0244 -0.12207,0.0977 -0.488281,0.24414 -0.585937,0.41504 -0.09766,0.1709 -0.219727,0.24414 -0.244141,0.34179 -0.02441,0.0977 -0.09766,0.36622 -0.09766,0.53711 0,0.1709 0,0.61036 0,0.61036 l 0.146484,0.31738 c 0,0 0.195313,0.0732 0.292969,0.24414 0.09766,0.1709 0.292969,0.3418 0.292969,0.3418 l 0.02441,0.17089 0,0.21973 0.09766,0.24414 c 0,0 0.195312,0.14649 0.292969,0.21973 0.09766,0.0732 0.170898,0.0488 0.292968,0.12207 0.122071,0.0732 0.292969,0.0977 0.439454,0.0977 0.146484,0 0.415039,-0.0244 0.537109,-0.0732 0.12207,-0.0488 0.317383,-0.1709 0.415039,-0.1709 0.09766,0 0.12207,0.0488 0.268555,0.0732 0.146484,0.0244 0.292968,0.0244 0.415039,0.0732 0.12207,0.0488 0.219726,0.12207 0.366211,0.14649 0.146484,0.0244 0.317383,0.0244 0.488281,0.0244 0.170898,0 0.488281,-0.31739 0.488281,-0.31739 0,0 0.195313,-0.26855 0.195313,-0.39062 0,-0.12207 0.02441,-0.5127 0.02441,-0.5127 l -0.317383,-0.53711 -0.268555,-0.1709 c 0,0 0.390625,-0.24414 0.488282,-0.29296 0.09766,-0.0488 0.341796,-0.58594 0.341796,-0.58594 l 0.07324,-0.46387 -0.146485,-0.46387 -0.366211,-0.39062 -0.463867,-0.0732 -0.537109,0.0977 -0.219727,0.29297 -0.07324,0.21972 -0.317383,-0.68359 -0.24414,-0.3418 -0.439454,-0.14648 c 0,0 -0.170898,-0.0732 -0.268554,0 -0.09766,0.0732 -0.561524,0.31738 -0.561524,0.31738 l -0.07699,0.40827 z"
       id="path4063"
       inkscape:connector-curvature="0"
       sodipodi:nodetypes="ccccscccccccccssssscscsccccccccccccccccccc" />
    <path
       style="fill:#000000;fill-opacity:0.47849462;stroke:none"
       d="m 75.29421,937.37118 -0.708008,0.12207 -0.292969,0.14649 -0.390625,0.29297 0,0.36621 c 0,0 -0.02441,0 0.02441,0.21972 0.04883,0.21973 0.170899,0.48828 0.170899,0.48828 l 0.463867,0.26856 0.292969,0.0977 -0.366211,0.51269 -0.146485,0.3418 c 0,0 0.09766,0.26856 0.122071,0.39063 0.02441,0.12207 0.292968,0.51269 0.292968,0.51269 0,0 0.439453,0.1709 0.585938,0.19531 0.146484,0.0244 0.732422,-0.0244 0.854492,-0.0977 0.12207,-0.0732 0.439453,-0.26855 0.585937,-0.39062 0.146485,-0.12207 0.65918,-0.53711 0.683594,-0.63477 0.02441,-0.0977 0.117883,-0.3657 0.117883,-0.3657 l 0.297158,0.12156 0.366211,0.19531 c 0,0 0.561524,0.0732 0.732422,0.0732 0.170899,0 0.78125,0.0732 0.854492,-0.0244 0.07324,-0.0977 0.366211,-0.48828 0.366211,-0.48828 l 0.195313,-0.36621 -0.195313,-0.68359 -0.197258,-0.3085 -0.242195,-0.35068 0.634766,-0.48828 0,-0.58594 -0.122071,-0.43945 -0.659179,-0.70801 -0.561524,-0.14649 -0.488281,0.1709 c 0,0 -0.294196,0.18174 -0.294196,0.27939 0,0.0977 -0.413812,0.11124 -0.413812,0.11124 l -0.488281,-0.78125 -0.415039,-0.19531 -0.976563,0.0977 c 0,0 -0.461413,0.40788 -0.461413,0.50554 0,0.0977 -0.09643,0.38766 -0.120843,0.50973 -0.02441,0.12207 -0.02268,0.54723 -0.02268,0.54723 z"
       id="path4065"
       inkscape:connector-curvature="0"
       sodipodi:nodetypes="cccccccccccscccsccccsccccccccccccsccccsscc" />
    <path
       sodipodi:type="arc"
       style="fill:#bababa;fill-opacity:1;fill-rule:nonzero;stroke:none"
       id="path3125-4"
       sodipodi:cx="7.4232402"
       sodipodi:cy="42.77919"
       sodipodi:rx="2.3132887"
       sodipodi:ry="2.3132887"
       d="m 9.7365289,42.77919 c 0,1.277594 -1.0356947,2.313289 -2.3132887,2.313289 -1.2775941,0 -2.3132887,-1.035695 -2.3132887,-2.313289 0,-1.277594 1.0356946,-2.313289 2.3132887,-2.313289 1.277594,0 2.3132887,1.035695 2.3132887,2.313289 z"
       transform="matrix(1.3966356,0,0,1.3966356,115.28089,874.18214)" />
    <path
       style="fill:#8f8f8f;fill-opacity:1;stroke:none"
       d="m 128.84724,933.6193 -0.83727,1.3293 -0.59563,0.8136 -1.09264,0.7742 -1.35427,0.2079 -0.9078,0.012 1.04555,0.4143 1.35109,0.022 0.91564,-0.4215 0.57703,-0.3686 0.4289,-0.4787 0.25361,-0.492 0.24619,-0.7732 z"
       id="path4059-6"
       inkscape:connector-curvature="0"
       sodipodi:nodetypes="cccccccccccccc" />
    <path
       sodipodi:type="arc"
       style="fill:#bababa;fill-opacity:1;fill-rule:nonzero;stroke:none"
       id="path3125-4-5"
       sodipodi:cx="7.4232402"
       sodipodi:cy="42.77919"
       sodipodi:rx="2.3132887"
       sodipodi:ry="2.3132887"
       d="m 9.7365289,42.77919 c 0,1.277594 -1.0356947,2.313289 -2.3132887,2.313289 -1.2775941,0 -2.3132887,-1.035695 -2.3132887,-2.313289 0,-1.277594 1.0356946,-2.313289 2.3132887,-2.313289 1.277594,0 2.3132887,1.035695 2.3132887,2.313289 z"
       transform="matrix(1.3966356,0,0,1.3966356,114.93977,884.17554)" />
    <path
       style="fill:#8f8f8f;fill-opacity:1;stroke:none"
       d="m 128.50612,943.6127 -0.83727,1.32928 -0.59563,0.81362 -1.09264,0.7742 -1.35427,0.20793 -0.90781,0.0119 1.04556,0.41432 1.35108,0.0223 0.91565,-0.42156 0.57702,-0.36854 0.4289,-0.47872 0.25362,-0.49204 0.24619,-0.77323 z"
       id="path4059-6-9"
       inkscape:connector-curvature="0"
       sodipodi:nodetypes="cccccccccccccc" />
    <path
       style="fill:#eb8931;stroke:none"
       d="m 124.74172,940.62921 0.28916,0.0113 0.2135,-0.004 0.0405,0.15 -0.36896,0.42152 -0.0735,0.32384 -0.092,0.45401 -0.22845,0.54452 0.12787,0.34098 0.46204,0.51895 0.56119,0.22394 0.16291,0.86798 0.41253,0.33563 0.28638,0.53064 -0.57125,0.79804 -0.30412,0.52919 0.0325,-0.277 0.14014,-0.34184 0.19645,-0.46435 0.22481,-0.29318 -0.3247,-0.34147 -0.34051,-0.069 -0.099,-0.36665 -0.10804,-0.39999 -0.40668,-0.2478 -0.46253,-0.32212 -0.40898,0.0747 -0.29147,0.3112 -0.11447,0.37068 0.0874,0.19098 -0.0388,0.38601 -0.25631,0.17651 -0.37346,0.40487 -0.0298,0.41933 -0.13687,-0.37432 0.0172,-0.20133 0.34596,-0.30802 0.14282,-0.19952 0.10996,-0.38733 -0.1702,-0.36532 0.0126,-0.21801 0.29147,-0.31118 0.31081,-0.17336 0.19282,-0.21302 -0.063,-0.23333 -0.19769,-0.26847 -0.0112,-0.37251 0.11628,-0.49634 0.34329,-0.45036 0.0176,-0.39816 0.21216,-0.0752 z"
       id="path4109"
       inkscape:connector-curvature="0" />
    <path
       style="fill:#eb8931;stroke:none"
       d="m 128.41635,942.78583 0.0671,0.13431 0.0487,0.28078 -0.0977,0.10982 -0.1465,0.0243 -0.23193,0.006 -0.14047,0.14026 -0.0307,0.28685 -0.0734,0.24411 -0.061,-0.13431 10e-5,-0.1831 -0.0853,-0.30523 0.18328,-0.31118 -0.061,-0.0977 -0.32956,-0.0612 -0.29296,-0.0246 -0.0487,-0.19535 -0.14634,-0.26864 -0.39061,-0.0368 -0.24418,0.10978 -0.21992,0.34167 -0.27471,0.10975 0.20764,-0.2135 0.0733,-0.18308 0.0794,-0.14033 0.13434,-0.10976 0.19541,-0.14633 0.4883,-0.0363 0.20747,0.0856 0.10975,0.20758 0.0975,0.232 0.17088,4e-5 0.23189,0.0856 0.20747,0.0978 0.12195,0.20148 0.15263,-0.0915 z"
       id="path4111"
       inkscape:connector-curvature="0"
       sodipodi:nodetypes="ccccccccccccccccccccccccccccccccccccc" />
    <path
       style="fill:#be2633;stroke:none"
       d="m 128.52316,943.14214 -0.13428,0.10376 -0.32959,0.0855 0.3479,0.006 0.14649,-0.10986 z"
       id="path4115"
       inkscape:connector-curvature="0" />
    <path
       style="fill:#be2633;stroke:none"
       d="m 127.80294,942.97735 -0.51269,-0.11597 -0.0793,-0.0794 -0.061,-0.19531 -0.15259,-0.23194 -0.3479,-0.0366 -0.32959,0.15259 -0.15259,0.29297 0.177,-0.23804 0.24414,-0.11596 0.36011,0.0549 0.21973,0.43945 0.25635,0.0366 z"
       id="path4117"
       inkscape:connector-curvature="0" />
    <path
       style="fill:#be2633;stroke:none"
       d="m 125.25554,940.77113 -0.38843,0.37116 -0.19853,0.69054 -0.11221,0.3539 -0.0432,0.328 0.31074,-0.5438 0.13811,-0.75095 z"
       id="path4119"
       inkscape:connector-curvature="0" />
    <path
       style="fill:#be2633;stroke:none"
       d="m 124.47869,943.55053 c -0.0345,0 -0.40569,0.009 -0.40569,0.009 l -0.34527,0.328 -0.0345,0.44022 0.164,-0.38843 0.30211,-0.28484 z"
       id="path4121"
       inkscape:connector-curvature="0" />
    <path
       style="fill:#be2633;stroke:none"
       d="m 124.59953,943.61095 0.86317,0.46611 0.18989,0.72506 0.32801,0.12948 0.27621,0.37979 -0.33663,-0.31074 -0.34527,-0.0949 -0.22442,-0.75096 z"
       id="path4123"
       inkscape:connector-curvature="0" />
    <path
       style="fill:#be2633;stroke:none"
       d="m 125.67849,946.64067 c 0.009,-0.0345 0.24169,-0.52653 0.24169,-0.52653 l 0.3021,-0.50927 0.31075,-0.27622 -0.30211,0.50927 z"
       id="path4125"
       inkscape:connector-curvature="0" />
    <path
       style="fill:#be2633;stroke:none"
       d="m 123.71047,944.86254 -0.29348,0.1899 -0.34527,0.38843 0.009,0.43158 0.0863,-0.42295 0.3539,-0.37116 z"
       id="path4127"
       inkscape:connector-curvature="0" />
    <path
       transform="matrix(0.40872996,0,0,0.40872996,-13.293374,912.60161)"
       sodipodi:type="arc"
       style="fill:#7b7b7b;fill-opacity:1;fill-rule:nonzero;stroke:none"
       id="path2982-1-29-8"
       sodipodi:cx="46.719555"
       sodipodi:cy="37.772816"
       sodipodi:rx="11.616755"
       sodipodi:ry="11.616755"
       d="m 58.336309,37.772816 c 0,6.415756 -5.200998,11.616754 -11.616754,11.616754 -6.415756,0 -11.616755,-5.200998 -11.616755,-11.616754 0,-6.415757 5.200999,-11.616755 11.616755,-11.616755 6.415756,0 11.616754,5.200998 11.616754,11.616755 z" />
    <path
       style="fill:#5b5b5b;fill-opacity:1;stroke:none"
       d="m 10.464046,928.82308 -0.8210997,1.07657 c 0,0 -0.85761,0.83936 -0.9306,0.87585 -0.073,0.0365 -1.45975,0.54741 -1.45975,0.54741 0,0 -0.96708,0.36493 -1.1313,0.38318 -0.16422,0.0182 -1.55099,0.10948 -1.66047,0.0912 -0.10948,-0.0182 -0.83935,-0.25546 -0.98533,-0.32844 -0.14597,-0.073 -0.63864,-0.23721 -0.78461,-0.2737 -0.14598,-0.0365 -0.52916,-0.0365 -0.52916,-0.0365 l 0.41968,0.52916 0.83935,0.49266 c 0,0 2.04365,0.67513 2.11664,0.67513 0.073,0 0.69338,-0.0365 0.91234,-0.0547 0.21896,-0.0182 2.24437,-0.72988 2.24437,-0.72988 0,0 0.25545,-0.34669 0.38318,-0.45617 0.12773,-0.10948 0.56566,-0.63864 0.56566,-0.63864 0,0 0.31019,-0.49267 0.3831797,-0.60215 0.073,-0.10948 0.45617,-1.14955 0.45617,-1.14955 z"
       id="path3754-7-13-1"
       inkscape:connector-curvature="0" />
    <path
       style="fill:#ababab;fill-opacity:1;stroke:none"
       d="m 4.9249363,923.3956 0.43868,0.92898 0.0258,0.61932 0.0774,1.00639 -0.25805,0.87737 c 0,0 -0.28385,0.61932 -0.41288,0.67093 -0.12902,0.0516 -0.90317,0.33546 -1.00639,0.36127 -0.10322,0.0258 -1.058,0.18063 -1.16122,0.18063 -0.10322,0 -0.87737,-0.20644 -0.87737,-0.20644 l -0.61932,-0.28385 -0.18063997,0 c 0,0 -0.0774,0.15483 -0.0774,0.30966 0,0.15483 0.10322,0.49029 0.10322,0.49029 l 0,0.4903 0.18063997,0.18064 0.38707,-0.25806 0.95479,-0.10322 1.0838,-0.0516 0.67093,0 0.59352,0.36127 0.23224,0.82576 c 0,0 0.0258,0.82576 0,0.92898 -0.0258,0.10322 -0.49029,0.64513 -0.49029,0.64513 l -0.20644,0.5419 -0.46449,0.43868 0.0258,0.15484 0.25805,0.10322 0.23224,0.0774 0.43869,-0.0258 0.0516,-0.20644 0.33546,-0.77415 0.20644,-0.59352 0.36127,-0.41288 0.46449,-0.56771 0.20644,-0.5161 0.46449,-0.30965 0.90318,-0.30967 0.56771,-0.0774 0.85156,-0.0516 0.46449,0.12902 0.4644897,0.30967 0.18063,0.0774 0.18064,-0.12902 0,-0.25806 0.20644,-0.46448 -0.23225,-0.33547 -0.36127,0.0516 -0.4128797,0.0258 c 0,0 -0.74834,-0.0516 -0.90317,-0.0774 -0.15483,-0.0258 -1.058,0 -1.21283,-0.0258 -0.15483,-0.0258 -0.77415,-0.33546 -0.90318,-0.43868 -0.12902,-0.10322 -0.46449,-0.77416 -0.5419,-0.90318 -0.0774,-0.12902 -0.18064,-1.13542 -0.20644,-1.23864 -0.0258,-0.10322 0,-0.56771 -0.0516,-0.87737 -0.0516,-0.30966 -0.0516,-0.59351 -0.0516,-0.69673 0,-0.10322 0.0516,-0.41288 0,-0.5161 -0.0516,-0.10322 -0.20644,-0.33547 -0.20644,-0.33547 l -0.33547,0 -0.36126,0.0774 z"
       id="path2984-4-5-6"
       inkscape:connector-curvature="0" />
    <path
       style="fill:#f7e26b;stroke:none"
       d="m 8.3697492,1049.5778 1.31201,0.1554 1.7090798,-0.1209 0.91495,-0.3625 0.34527,-0.5524 0.41432,-1.5365 0.0173,-0.5524 -0.56969,0.656 -0.55242,0.5697 -0.58696,0.069 -0.20716,-0.1726 -0.67327,-1.3293 -0.10358,-0.2072 -0.36253,0.5525 -0.2934798,0.7941 -0.24168,0.3625 -0.50064,0.052 -0.44885,-0.2589 -0.60421,-1.1394 -0.10358,0.8286 0.069,1.0876 z"
       id="path4221"
       inkscape:connector-curvature="0" />
    <path
       style="fill:#faeeaa;fill-opacity:1;stroke:none"
       d="m 10.042969,1046.6801 -0.0312,0.063 -0.2812498,0.7917 -0.25,0.3799 -0.0312,0 -0.21875,0.6017 -0.28125,0.5066 -0.46875,0.6017 0.46875,0.032 0.25,-0.3483 0.375,-0.76 0.4687498,-1.8683 z"
       id="path4221-6"
       inkscape:connector-curvature="0" />
    <path
       style="fill:#31a2f2;stroke:none"
       d="m 7.9070892,1047.9855 -0.28486,0.5351 0.25896,0.6042 0.44022,0.164 0.0173,-0.397 -0.17263,-0.6388 z"
       id="path4225-4"
       inkscape:connector-curvature="0" />
    <path
       style="fill:#96cff8;fill-opacity:1;stroke:none"
       d="m 7.7851492,1048.2036 -0.0937,0.1633 0,0.098 0,0.2287 0.0937,0.2287 -0.0312,-0.4574 0.0312,-0.2613 z"
       id="path4225"
       inkscape:connector-curvature="0" />
    <path
       style="fill:#be2633;stroke:none"
       d="m 9.7180092,1048.1229 -0.18989,0.2245 0.0259,0.7768 0.37116,0.2762 0.2762198,-0.2503 -0.0345,-0.7768 z"
       id="path4229-4"
       inkscape:connector-curvature="0" />
    <path
       style="fill:#e16872;fill-opacity:1;stroke:none"
       d="m 9.6834992,1048.1608 -0.10322,0.099 0,0.066 0.0688,0.7923 0.0344,0.099 0.13763,0.132 -0.10322,-0.2641 -0.0688,-0.7262 0.0344,-0.198 z"
       id="path4229"
       inkscape:connector-curvature="0" />
    <path
       style="fill:#a3ce27;stroke:none"
       d="m 11.721799,1048.0451 -0.24169,0.2762 -0.009,0.6905 0.19853,0.2676 0.31937,-0.3107 0.0259,-0.6647 z"
       id="path4231-1"
       inkscape:connector-curvature="0" />
    <path
       style="fill:#cde782;fill-opacity:1;stroke:none"
       d="m 11.652729,1048.0952 -0.0625,0.096 0.0312,0.1277 -0.0937,0.7022 -0.0312,0.064 0.0625,0.064 0.0625,-0.1277 0.0625,-0.7022 -0.0312,-0.2235 z"
       id="path4231"
       inkscape:connector-curvature="0" />
    <path
       style="fill:#faeeaa;fill-opacity:1;stroke:none"
       d="m 10.897219,1047.1824 -0.0625,0.875 -0.25,1.0938 -0.34375,0.5625 0.125,0 0.375,-0.625 0.34375,-1.5 0,-0.031 -0.1875,-0.375 z"
       id="path4221-2"
       inkscape:connector-curvature="0" />
    <path
       style="fill:#7b7b7b;fill-opacity:1;stroke:none"
       d="m 20.705628,960.03961 0.136047,0.40815 0.340101,-0.17008 0.255075,-0.0507 0.391115,-0.0507 0.289086,0.0507 0.187056,0.11864 c 0,0 0.153046,0.068 0.289086,-0.0173 0.136046,-0.0853 0.272081,-0.79924 0.272081,-0.79924 l -0.391116,-0.6802 -0.731217,-0.25513 -0.697208,0.49319 z"
       id="path4186-1"
       inkscape:connector-curvature="0" />
    <path
       style="fill:#5b5b5b;fill-opacity:1;stroke:none"
       d="m 22.610333,952.44767 -0.19239,1.92398 -0.57717,2.78959 -0.913853,1.63526 -0.817659,1.39493 -0.04811,0.48093 0.529073,0.14436 0.432877,-0.14436 0.0962,-0.52904 0.04811,-0.57717 0.288586,-0.43294 0.721463,0 0.288585,0.43294 0,0.43281 -0.240487,0.48106 0.144289,0.38469 0.721464,0 0.144289,-0.67328 0,-0.72152 -0.240488,-0.76951 -0.288585,-1.15434 0.09619,-1.15433 0.14429,-1.34681 0.240487,-0.62529 0.577172,-0.33657 0.865754,-0.52918 0.432879,-1.05809 -0.480976,-0.96199 -1.298633,-0.57717 -0.577171,0.48106 z"
       id="path4166-7"
       inkscape:connector-curvature="0" />
    <path
       style="fill:#5b5b5b;fill-opacity:1;stroke:none"
       d="m 3.4426192,957.01906 -0.141464,-0.9331 0.127506,-1.0531 0.434484,-1.0669 c 0,0 0.873694,-0.912 1.086442,-0.988 0.212748,-0.076 1.601671,-0.6202 1.601671,-0.6202 l 1.416366,0.07 -0.975574,0.4925 -1.130521,0.9317 -1.048437,1.0943 -0.19745,0.7903 -0.200366,1.655 0.291913,0.9513 0.70976,0.4421 1.009089,0.071 0.81905,-0.4606 1.274904,-0.8634 c 0,0 0.398051,-0.7659 0.472487,-0.9605 0.07441,-0.1945 0.337663,-0.7851 0.361953,-0.9857 0.02423,-0.2006 0.09339,-1.0177 0.09339,-1.0177 l -0.02881,-1.0998 0.536591,1.0318 0.1993168,1.1261 -0.05647,1.3578 -0.3722868,1.1942 -0.666512,0.8563 -0.939145,0.5355 -1.665542,0.3072 -1.378359,0.037 -0.980304,-0.7293 -0.687052,-1.05 z"
       id="path4404-4"
       inkscape:connector-curvature="0"
       sodipodi:nodetypes="ccccscccccccccccccsccccccccccccc" />
    <path
       style="fill:#5b5b5b;fill-opacity:1;stroke:none"
       d="m 19.80876,964.33666 c 0,0 -0.685588,1.6959 -0.685588,1.8763 0,0.1804 0.757755,1.4434 0.757755,1.4434 0,0 0.793838,1.1546 0.902089,1.4794 0.108248,0.3247 0.396919,2.5258 0.433002,2.7784 0.03609,0.2526 -0.06742,3.3214 -0.06742,3.4657 0,0.1444 -0.283539,1.926 -0.39179,2.2146 -0.108249,0.2887 -0.290858,1.3373 -0.290858,1.3373 l -1.276873,2.47904 2.171269,-2.64074 0.577338,-1.1908 0.711478,-2.5619 0.948365,-3.5001 c 0,0 0.974256,-1.6598 1.082507,-1.8042 0.108249,-0.1443 1.082507,-1.0825 1.082507,-1.0825 l 1.443343,-0.7577 -0.216502,-1.263 0.577337,-1.5516 -1.479427,-1.0464 -2.525848,-0.866 -2.092847,0.1083 z"
       id="path3077-1-3-0"
       inkscape:connector-curvature="0"
       sodipodi:nodetypes="cscscssccccccscccccccc" />
    <path
       style="fill:#7b7b7b;fill-opacity:1;stroke:none"
       d="m 20.151554,966.80836 0.739713,1.5877 0.487128,1.0464 c 0,0 0.469085,0.7217 0.559294,0.866 0.09021,0.1443 0.974256,1.3892 0.974256,1.4975 0,0.1082 0.288669,1.0825 0.288669,1.0825 l 0.162376,0.1263 0.180418,-0.1805 0.108249,-0.3788 -0.07216,-0.4511 -0.144334,-0.5773 c 0,0 -0.378877,-0.866 -0.414962,-0.9382 -0.03609,-0.072 -0.703628,-0.9923 -0.721671,-1.0644 -0.01804,-0.072 -0.793838,-1.2088 -0.793838,-1.2088 0,0 -0.378877,-1.2088 -0.414961,-1.281 -0.03609,-0.072 -0.252584,-0.6676 -0.252584,-0.6676 l -0.559296,0 z"
       id="path3079-1-19-9"
       inkscape:connector-curvature="0" />
    <path
       style="fill:#7b7b7b;fill-opacity:1;stroke:none"
       d="m 21.161893,973.39366 -0.144334,0.1623 -0.01804,0.3067 -0.01804,0.3067 0.180418,0.415 0.884047,2.165 c 0,0 -0.01804,0.4871 -0.01804,0.5593 0,0.072 0.216502,0.1443 0.216502,0.1443 l 0.234543,-0.2525 0.07217,-0.3789 -0.108248,-0.6495 -0.252585,-0.6856 -0.559296,-0.9923 c 0,0 -0.198458,-0.3428 -0.234543,-0.415 -0.0361,-0.072 -0.234563,-0.6855 -0.234563,-0.6855 z"
       id="path3081-2-6-48"
       inkscape:connector-curvature="0" />
    <path
       style="fill:#7b7b7b;fill-opacity:1;stroke:none"
       d="m 20.692807,977.77776 -0.126293,0 -0.07216,0.1985 c 0,0 -0.01804,0.1804 0,0.2706 0.01804,0.09 0.07216,0.4691 0.07216,0.4691 l 0.01804,0.451 c 0,0 -0.162376,0.3969 -0.180418,0.4691 -0.01804,0.072 -0.252584,0.3428 -0.270626,0.415 -0.01804,0.072 -0.270627,0.4871 -0.270627,0.4871 l -0.252584,0.3247 0.505169,-0.3969 c 0,0 0.252585,-0.3428 0.30671,-0.433 0.05412,-0.09 0.342794,-0.6495 0.342794,-0.6495 0,0 0.126293,-0.3428 0.126293,-0.4149 0,-0.072 0,-0.5413 0,-0.5413 l -0.126289,-0.451 z"
       id="path3083-7-0-8"
       inkscape:connector-curvature="0" />
    <path
       style="fill:#7b7b7b;fill-opacity:1;stroke:none"
       d="m 33.265373,958.18258 0.418605,-0.0837 0.837209,0.0279 0.781395,0.27907 0.446511,0.30697 0.418604,0.30698 0.613953,-0.19535 c 0,0 0.530232,0 0.641859,0.0558 0.111633,0.0558 0.809302,0.55814 0.809302,0.55814 l 0.251163,0.3907 0.306976,-0.27907 c 0,0 0.334884,-1.06047 0.334884,-1.2 0,-0.13953 0.334884,-1.67441 0.334884,-1.67441 l -0.223257,-2.00931 -1.08837,-0.92093 -1.451162,-0.13953 -1.116279,0.4465 -0.781395,1.03257 c 0,0 -0.920929,1.50697 -0.948836,1.6186 -0.0279,0.11168 -0.362789,0.92092 -0.362789,0.92092 z"
       id="path3121-2"
       inkscape:connector-curvature="0" />
    <path
       style="fill:#5b5b5b;fill-opacity:1;stroke:none"
       d="m 38.550172,950.81634 -0.315732,0.31574 -0.828794,1.02612 -1.302391,0.98666 -1.223458,1.22346 -1.10506,1.93385 c 0,0 -0.670928,1.69705 -0.670928,1.89439 0,0.19733 -0.07893,0.78933 -0.07893,0.78933 0,0 0.276265,-0.0789 0.315731,-0.2368 0.03947,-0.15787 0.276264,-1.22346 0.276264,-1.22346 l 0.710396,-1.22346 1.144525,-1.77599 0.710395,-0.51306 c 0,0 0.907727,0.1184 1.026127,0.27626 0.118399,0.15787 0.43413,0.592 0.43413,0.74987 0,0.15787 -0.03947,0.67092 -0.118399,0.82879 -0.07893,0.15787 -0.513064,0.82879 -0.55253,0.98666 -0.03947,0.15786 -0.315731,0.4736 -0.394664,0.74986 -0.07893,0.27626 -0.394664,0.9472 -0.394664,0.9472 l -0.118399,0.74985 0.197332,0 0.276265,-0.51305 c 0,0 0.276265,-0.63147 0.355197,-0.78934 0.07893,-0.15787 0.394664,-0.71039 0.394664,-0.71039 l 0.473597,-0.39467 0.55253,0 0.394664,0.43414 0,0.55252 c 0,0 -0.07893,0.98667 -0.07893,1.14454 0,0.15785 -0.236798,0.98665 -0.236798,0.98665 l 0.276265,0.19734 c 0,0 0.276265,-0.27627 0.276265,-0.51307 0,-0.2368 0.197331,-1.02612 0.197331,-1.02612 0,0 0.197333,-0.43414 0.236798,-0.592 0.03947,-0.15787 0.355199,-0.7104 0.355199,-0.7104 l 0.513063,-0.4736 0.828793,-0.2368 0.670929,-0.86825 -0.355197,-0.74986 -0.276265,-1.61813 -1.065593,-1.65759 -0.670929,-0.67092 z"
       id="path3119-4"
       inkscape:connector-curvature="0" />
    <path
       style="fill:#5b5b5b;fill-opacity:1;stroke:none"
       d="m 12.976907,967.29006 -4.2101738,-2.8434 -4.632881,1.5475 -1.946317,2.5588 2.114485,-2.0718 4.332551,-1.5066 3.4729288,3.0456 -0.483038,1.697 -3.2619868,-1.4939 -3.675001,1.4683 -1.323731,4.5134 1.849086,-4.0241 3.228884,-0.9997 2.7273958,1.3117 0.292603,2.1524 -4.4447778,3.3062 -0.667678,2.5889 1.684964,2.2691 -1.097895,-2.4508 0.728935,-2.1385 4.2785638,-3.0287 1.147848,-2.8071 z"
       id="path4360-5"
       inkscape:connector-curvature="0" />
    <path
       style="fill:#7b7b7b;fill-opacity:1;stroke:none"
       d="m 42.298815,964.81531 -1.214511,0.64298 -1.21451,0.64297 c 0,0 -1.393116,0.50009 -1.607441,0.57154 -0.214325,0.0709 -1.893208,0.53575 -1.893208,0.53575 l -0.107106,1.00019 -0.250046,0.60731 -1.464557,2.00037 -0.928743,1.53594 -0.464372,0.57154 0.642976,0.64297 0.714418,0.92875 0.107106,1.00018 0.07144,1.28595 0.250046,0.21433 0.714418,0.39299 0.714418,0.46431 0.607255,0.67876 0.928744,1.32161 3.643532,-7.25128 c 0,0 0.78586,-3.89364 0.78586,-4.10796 0,-0.21433 -0.03566,-3.6792 -0.03566,-3.6792 z"
       id="path4340-5"
       inkscape:connector-curvature="0" />
    <path
       style="fill:#5b5b5b;fill-opacity:1;stroke:none"
       d="m 40.633261,977.34414 -0.848775,0.0789 -0.721459,0.47368 -0.424387,0.67087 -0.25463,0.90771 -0.381945,0.82884 -0.297072,-0.23684 0.169745,-1.10501 0.297072,-0.86827 0,-0.78929 -0.466817,-0.63155 c 0,0 -0.636587,-0.23673 -0.806344,-0.23673 -0.169746,0 -0.72146,0.0389 -0.72146,0.0389 l -0.806332,0.51301 -0.721459,0.63143 -0.424387,-0.15786 -0.04241,-0.63143 0.806332,-0.63143 0.509272,-0.51313 0.594144,-0.7103 0.212188,-0.9867 -0.339515,-0.82883 c 0,0 -0.594132,-0.35516 -0.76389,-0.39459 -0.169757,-0.0389 -1.103416,-0.0389 -1.103416,-0.0389 l -0.76389,0.47358 -0.594144,0.27628 -0.169757,-0.35527 0.297072,-0.7103 0.721459,-0.55256 0.891217,-0.35527 1.485349,-0.39458 0.763902,-0.47358 0.763902,-1.18399 0.579581,-0.65029 -0.531996,-0.5401 -0.605769,-0.55862 -0.861199,0.0194 -0.491246,-0.179 0.297953,-0.42019 c 0,0 0.466829,-0.0789 0.679017,-0.0789 0.212199,0 1.315604,0 1.315604,0 l 1.761206,0.53279 1.761206,-0.69064 0.424388,-0.35515 0.04241,-0.94727 0.08482,-0.98658 0.254641,-0.3947 0.339503,0 0.169757,0.47357 -0.04241,0.78941 -0.04241,0.74985 -0.08482,1.26286 -0.04241,1.3814 z"
       id="path3277-1"
       inkscape:connector-curvature="0"
       sodipodi:nodetypes="cccccccccccscccccccccccccccccccccccccccscccccccccccccc" />
    <path
       style="fill:#7b7b7b;fill-opacity:1;stroke:none"
       d="m 16.827278,989.30196 -0.828233,-0.84827 -1.502461,-0.75969 -0.977301,0 -0.895812,0.40705 -0.807372,0.86508 -0.97034,0.50546 -0.823387,-0.1398 -1.9187094,-0.53838 -0.610914,0.28451 -0.814391,0.57016 c 0,0 -0.610798,0.52924 -0.773686,0.69213 -0.162761,0.16323 -0.244331,1.05882 -0.325763,1.3031 -0.08139,0.24439 -0.0815,0.97721 -0.0815,0.97721 l 0.810093,0.9636 0.366491,1.34368 0.04069,1.09941 c 0,0 -0.122125,0.20369 -0.122114,0.52935 1.2e-5,0.32577 -0.08139,0.89582 -0.08139,0.89582 l 0.162807,0.89583 1.018131,0.9364 c 0,0 0.699273,0.4746 0.943592,0.71889 0.244308,0.2444 0.766634,0.1769 1.010988,0.2583 0.244616,0.081 0.8550844,-0.04 0.8550844,-0.04 l 1.221643,-0.4068 0.57006,-0.32566 1.058791,-0.40727 1.104307,0.25216 0.855119,0.0412 0.977129,-0.24485 0.651549,-0.40704 0.732959,-0.73294 0.447934,-1.18102 0.08139,-0.89571 c 0,0 0.24432,-0.57005 0.04069,-0.77374 -0.203592,-0.20358 -0.697203,-0.9851 -0.819363,-1.18856 -0.122034,-0.20381 -0.40723,-1.05871 -0.40723,-1.05871 0,0 -0.244251,-0.65155 -0.162876,-1.05871 0.0815,-0.40717 0.203604,-1.02214 0.203604,-1.02214 l 0.122182,-0.7638 z"
       id="path4177-8-7"
       inkscape:connector-curvature="0"
       sodipodi:nodetypes="cccccccccccscccccccccsccccccccccccsscsccc" />
    <path
       style="fill:#5b5b5b;fill-opacity:1;stroke:none"
       d="m 11.848402,987.16613 -1.22393,-0.0149 -1.6515634,0.54228 -0.713469,0.7135 -0.356729,0.95126 0.04206,1.22091 -0.33932,1.07746 -0.703262,0.49906 -1.793864,1.00773 -0.237827,0.65407 -0.178364,1.0107 c 0,0 -0.05944,0.83238 -0.05944,1.07014 0,0.23787 0.594556,0.95138 0.71347,1.18914 0.118913,0.23787 0.654007,0.77294 0.654007,0.77294 l 1.294834,0.11202 1.248563,0.7135 0.832371,0.77283 c 0,0 0.05944,0.23787 0.297278,0.47563 0.237827,0.2379 0.5945564,0.7135 0.5945564,0.7135 l 0.77292,0.5351 1.426927,-0.059 c 0,0 0.857005,-0.164 1.213734,-0.164 0.35674,0 0.688836,-0.4306 0.926663,-0.5495 0.237816,-0.119 0.594556,-0.65409 0.594556,-0.65409 l 0.594555,-1.18902 0.178365,-0.65406 0.475642,-1.07026 0.990344,-0.62206 0.654006,-0.59462 0.535094,-0.89182 0.178364,-0.77295 0,-1.07014 -0.535093,-1.18913 -0.594556,-0.71351 c 0,0 -0.237815,-0.59451 -0.535093,-0.59451 -0.297278,0 -1.228171,-0.21021 -1.465986,-0.26965 -0.237827,-0.0594 -1.070198,-0.47563 -1.070198,-0.47563 0,0 -0.654007,-0.29731 -0.891834,-0.65406 -0.237815,-0.35664 -0.597539,-0.8948 -0.597539,-0.8948 l -0.46843,-0.64674 z"
       id="path4177-1"
       inkscape:connector-curvature="0"
       sodipodi:nodetypes="cccccccccccscccccccccsccccccccccccsscsccc" />
    <path
       style="fill:#9d9d9d;stroke:none"
       d="m 26.385128,997.34241 2.525851,-1.8944 5.406887,-4.5387 -2.604779,5.7621 -1.460259,3.70979 -1.973314,-0.1973 -1.697058,-1.18389 z"
       id="path4267-4-1"
       inkscape:connector-curvature="0" />
    <path
       style="fill:#7a7a7a;fill-opacity:1;stroke:none"
       d="m 33.766861,991.32481 -0.321488,0.2858 0,0.035 0.07144,0.3214 0.03566,0.2144 0.214326,0.2501 0.03566,0 0,-0.036 0.107105,-0.3214 -0.03566,-0.1074 -0.07144,-0.25 -0.03566,-0.2501 0,-0.1429 z m -0.928743,0.7859 -0.464371,0.393 c 0.0046,0.077 0,0.1392 0,0.1785 0,0.071 0.03566,0.2149 0.03566,0.2858 0,0.071 0.03566,0.2501 0.03566,0.2501 l 0.107105,0.3929 0.214325,0.3572 0.250046,0.2143 0.214326,-0.4643 -0.03566,-0.1075 -0.142884,-0.3928 -0.07144,-0.2858 -0.142883,-0.2858 0,-0.2858 0,-0.2501 z m -1.464557,1.2145 -0.464372,0.393 0.03566,0.071 0.107106,0.2858 0.107105,0.3572 0.214326,0.4643 0.285767,0.3572 0.357209,0.2858 0.321488,0.1429 0.214326,-0.5001 -0.03566,-0.035 -0.250047,-0.1787 -0.214325,-0.2143 -0.250046,-0.3215 -0.178605,-0.2857 -0.107105,-0.2858 -0.07144,-0.3215 -0.07144,-0.2144 z m -1.464557,1.2145 -0.428651,0.3572 0.03566,0.1075 0.107106,0.4286 0.285767,0.6072 0.535813,0.4644 0.464372,0.3572 0.78586,0.3215 0.178605,-0.5001 -0.178605,-0.1075 -0.607255,-0.2501 -0.428651,-0.3572 -0.500093,-0.5001 -0.250046,-0.9287 z m -1.107348,0.8931 -0.500093,0.3928 0.214326,0.5001 0.214325,0.4287 0.250047,0.2858 0.607255,0.9198 1.285952,0.9467 0.214326,-0.5001 -0.607255,-0.6162 -0.428651,-0.3573 -0.357209,-0.4286 -0.39293,-0.5001 -0.357209,-0.5001 z"
       id="path4267-4-6-5"
       inkscape:connector-curvature="0"
       sodipodi:nodetypes="ccccccccccccccccsscccccccccccccccccccccccccccccccccccccccccccccccccccccccccccc" />
    <path
       style="fill:#9d9d9d;stroke:none"
       d="m 27.395464,1010.2746 2.525851,-1.8943 5.406898,-4.5387 -2.60479,5.7621 -1.460248,3.7099 -1.973326,-0.1973 -1.697057,-1.184 z"
       id="path4267-7"
       inkscape:connector-curvature="0" />
    <path
       style="fill:#5b5b5b;fill-opacity:1;stroke:none"
       d="m 27.070376,986.32321 0.178604,-0.4644 0.464372,-0.375 0.714418,-0.089 0.375075,0.3929 0.03566,0.375 0.196459,0.1787 c 0,0 0.250047,0.089 0.339355,0.1074 0.08927,0.018 0.339343,0.1075 0.339343,0.1075 l 0.19647,0.25 0.39293,0.3572 c 0,0 0.607256,0.4108 0.678698,0.4286 0.07144,0.018 0.642976,0.2323 0.642976,0.2323 l 0.339343,0.125 0.16075,0.1786 0.07144,0.375 -0.125029,0.5895 -0.303622,0.4107 -0.750139,0.1787 -0.94661,-0.4108 -1.911063,-1.1073 -0.910889,-1.1074 z"
       id="path4269-1"
       inkscape:connector-curvature="0" />
    <path
       style="fill:#f7e26b;fill-opacity:1;fill-rule:nonzero;stroke:none"
       d="m 63.784352,28.686013 0.177893,-0.238001 0.720825,-2.048089 0.264386,-0.389066 0.316041,-0.01653 0.28421,0.469861 0.413029,1.993275 0.182318,0.302427 0.417501,0.180056 1.802554,0.194117 0.558675,0.323228 0.03074,0.277092 -0.552245,0.326992 -1.615086,0.513529 -0.303752,0.188889 0.105963,0.32468 0.878876,1.703865 -0.03573,0.660702 -0.257461,0.124475 -0.597265,-0.203085 -1.272845,-1.115763 -0.464762,-0.282406 -0.441656,0.230449 -1.311225,1.055287 -0.648578,0.193984 -0.206804,-0.185645 0.190504,-0.698346 0.677225,-1.327637 0.183475,-0.477879 -0.327184,-0.435582 -1.257182,-0.546224 -0.486678,-0.476195 0.06763,-0.29417 0.632347,-0.16824 1.476148,-0.03792 z"
       id="path3167"
       inkscape:connector-curvature="0"
       transform="translate(0,917.3598)"
       sodipodi:nodetypes="cccccccccccccccccccccccccccccccccccc" />
    <path
       style="fill:#f7e26b;fill-opacity:1;fill-rule:nonzero;stroke:none"
       d="m 77.703395,946.89802 1.273589,-2.85746 0.93612,2.94584 2.969512,0.67272 -2.631124,1.14369 0.956647,2.87622 -2.506124,-1.72625 -2.600333,1.59367 1.215149,-2.89721 -2.324446,-1.34007 z"
       id="path3167-1"
       inkscape:connector-curvature="0"
       sodipodi:nodetypes="ccccccccccc" />
    <path
       style="fill:#efefef;fill-opacity:1;fill-rule:nonzero;stroke:none"
       d="m 65.937708,954.09158 c -4.904255,0 -8.894505,3.9545 -8.894505,8.8588 0,4.9042 3.99025,8.8944 8.894505,8.8944 4.904255,0 8.894505,-3.9902 8.894505,-8.8944 0,-4.9043 -3.99025,-8.8588 -8.894505,-8.8588 z m 0,1.7146 c 3.945201,0 7.144181,3.199 7.144181,7.1442 0,3.9452 -3.19898,7.1442 -7.144181,7.1442 -3.9452,0 -7.14418,-3.199 -7.14418,-7.1442 0,-3.9452 3.19898,-7.1442 7.14418,-7.1442 z"
       id="path4135-9-7"
       inkscape:connector-curvature="0" />
    <path
       style="fill:#efefef;fill-opacity:1;fill-rule:nonzero;stroke:none"
       d="m 86.59375,953.2973 0,5.03125 2.34375,0 0,-5.03125 -2.34375,0 z m -7.03125,7 0,2.34375 5,0 0,-2.34375 -5,0 z m 11.40625,0 0,2.34375 5,0 0,-2.34375 -5,0 z m -4.375,4.34375 0,5.03125 2.34375,0 0,-5.03125 -2.34375,0 z"
       id="rect3976"
       inkscape:connector-curvature="0" />
    <path
       style="fill:#4b4b4b;fill-opacity:1;fill-rule:nonzero;stroke:none"
       d="m 28.366076,1035.7206 -1.052306,2.255 3.658015,0.099 2.154722,1.4031 0.651427,-0.5513 -1.803953,-2.1546 z"
       id="path3267"
       inkscape:connector-curvature="0" />
    <path
       sodipodi:type="arc"
       style="fill:#9d9d9d;fill-opacity:1;fill-rule:nonzero;stroke:none"
       id="path3065"
       sodipodi:cx="104.38663"
       sodipodi:cy="16.648008"
       sodipodi:rx="13.34664"
       sodipodi:ry="13.34664"
       d="m 117.73327,16.648008 c 0,7.371146 -5.9755,13.34664 -13.34664,13.34664 -7.371148,0 -13.346642,-5.975494 -13.346642,-13.34664 0,-7.3711452 5.975494,-13.3466393 13.346642,-13.3466393 7.37114,0 13.34664,5.9754941 13.34664,13.3466393 z"
       transform="translate(-0.61871841,917.27141)" />
    <path
       style="fill:#7a7a7a;fill-opacity:1;fill-rule:nonzero;stroke:none"
       d="m 35.266949,86.54109 -4.684582,9.347068 0.707107,0.110485 z"
       id="path3067"
       inkscape:connector-curvature="0"
       transform="translate(0,917.3598)" />
    <path
       style="fill:#ffffff;fill-opacity:1;fill-rule:nonzero;stroke:none"
       d="m 111.28092,40.070919 -2.69584,1.546796 5.48008,4.110058 2.78423,-1.414214 z"
       id="path3064"
       inkscape:connector-curvature="0"
       transform="translate(0,917.3598)" />
    <path
       style="fill:#e7e7e7;fill-opacity:1;fill-rule:nonzero;stroke:none"
       d="m 123.65529,40.380278 c 0,0 -1.81196,1.59099 -1.81196,1.767767 0,0.176777 4.94975,2.607456 4.94975,2.607456 l 0.17678,-2.386485 z"
       id="path3066"
       inkscape:connector-curvature="0"
       transform="translate(0,917.3598)" />
    <path
       style="fill:#ffffff;fill-opacity:1;fill-rule:nonzero;stroke:none"
       d="m 124.71595,43.739035 4.15426,-3.844893 1.59099,1.193243 -3.8449,3.800699 z"
       id="path3068"
       inkscape:connector-curvature="0"
       transform="translate(0,917.3598)" />
    <path
       style="fill:#ffffff;fill-opacity:1;fill-rule:nonzero;stroke:none"
       d="m 121.88753,47.583928 -0.88389,6.054602 3.35876,0.309359 0.35355,-6.231378 z"
       id="path3070"
       inkscape:connector-curvature="0"
       transform="translate(0,917.3598)" />
  </g>
</svg>
