<?xml version="1.0" encoding="UTF-8" standalone="no"?>
<!-- Created with Inkscape (http://www.inkscape.org/) -->

<svg
   xmlns:dc="http://purl.org/dc/elements/1.1/"
   xmlns:cc="http://creativecommons.org/ns#"
   xmlns:rdf="http://www.w3.org/1999/02/22-rdf-syntax-ns#"
   xmlns:svg="http://www.w3.org/2000/svg"
   xmlns="http://www.w3.org/2000/svg"
   xmlns:sodipodi="http://sodipodi.sourceforge.net/DTD/sodipodi-0.dtd"
   xmlns:inkscape="http://www.inkscape.org/namespaces/inkscape"
   width="135"
   height="135"
   id="svg2989"
   version="1.1"
   inkscape:version="0.48.4 r9939"
   sodipodi:docname="New document 1">
  <defs
     id="defs2991" />
  <sodipodi:namedview
     id="base"
     pagecolor="#ffffff"
     bordercolor="#666666"
     borderopacity="1.0"
     inkscape:pageopacity="0.0"
     inkscape:pageshadow="2"
     inkscape:zoom="3.959798"
     inkscape:cx="100.19478"
     inkscape:cy="74.7893"
     inkscape:document-units="px"
     inkscape:current-layer="layer1"
     showgrid="false"
     units="in"
     inkscape:window-width="1600"
     inkscape:window-height="837"
     inkscape:window-x="-8"
     inkscape:window-y="-8"
     inkscape:window-maximized="1" />
  <metadata
     id="metadata2994">
    <rdf:RDF>
      <cc:Work
         rdf:about="">
        <dc:format>image/svg+xml</dc:format>
        <dc:type
           rdf:resource="http://purl.org/dc/dcmitype/StillImage" />
        <dc:title></dc:title>
      </cc:Work>
    </rdf:RDF>
  </metadata>
  <g
     inkscape:label="Layer 1"
     inkscape:groupmode="layer"
     id="layer1"
     transform="translate(0,-917.35975)">
    <rect
       style="fill:#31a2f2;fill-opacity:1;fill-rule:nonzero;stroke:none"
       id="rect3002"
       width="129.8046"
       height="62.629459"
       x="3.2829957"
       y="70.855316"
       transform="translate(0,917.35975)" />
    <path
       style="fill:#ffffff;fill-opacity:1;fill-rule:nonzero;stroke:none"
       d="m 97.260153,919.266 c -0.167411,-0.008 -0.352678,0.0179 -0.53125,0.0625 -0.714286,0.17858 -1.625,0.875 -2.25,1.5 -0.625,0.625 -1.325893,0.89286 -2.21875,1.875 -0.892857,0.98215 -0.803571,1.09822 -1.875,1.8125 -1.071428,0.71429 -1.0625,1.3125 -2.3125,1.9375 -1.25,0.625 -1.709822,0.80804 -2.78125,1.34375 -1.071429,0.53572 -1.245535,0.64286 -1.78125,1 -0.08059,0.0537 -0.112298,0.0825 -0.15625,0.125 l 0,-0.0312 c -0.755977,0.0168 -1.364408,-0.26879 -3.375,-0.3125 -2.904189,-0.0631 -3.36104,-0.93115 -4.75,-1.5625 -1.388959,-0.63134 -3.420367,-0.46811 -5.125,-0.53125 -0.591246,-0.0219 -0.916576,0.0127 -1.1875,0.0625 l -0.75,-0.875 c 0,0 -0.07985,-1.10957 -0.09375,-1.78125 0.292524,-0.83827 0.5,-1.76502 0.5,-2.71875 0,-0.7283 -0.0091,-1.27615 -0.03125,-1.71875 l -6.90625,0 c 0.0012,0.0523 0.0016,0.10482 0,0.15625 l -0.625,0 c -0.10479,0.61027 -0.40625,1.14988 -0.40625,2.03125 0,1.60715 -0.16964,2.14732 -0.4375,4.46875 -0.03688,0.3196 -0.04395,0.56744 -0.0625,0.84375 -0.114363,0.19657 -0.237797,0.39191 -0.34375,0.625 -0.337684,0.74291 -0.429471,1.66282 -0.46875,2.625 -1.106782,0.30447 -4.391656,-0.0292 -5.84375,0.0312 -1.188827,0.0495 -1.822895,0.0163 -3.0625,-0.21875 0.002,-0.74302 0.0049,-1.42474 -0.03125,-1.75 -0.0893,-0.80357 -0.28571,-0.72321 -0.375,-2.0625 -0.0893,-1.33928 -0.79911,-2.66964 -1.15625,-4.1875 -0.236,-1.00297 -0.35265,-1.61693 -0.40625,-2.40625 l -3.4375,0 c 0.60945,1.65958 0.90625,3.1623 0.90625,5.15625 0,1.37323 0.225919,2.93611 0.4375,4.5 -0.494535,-0.0628 -0.953298,-0.11478 -1.65625,-0.1875 -1.830902,-0.1894 -3.391021,-0.4375 -4.90625,-0.4375 -1.515229,0 -4.611041,0.93496 -6,1.1875 -1.38896,0.25254 -2.164657,0.46241 -4.4375,1.09375 -2.272843,0.63135 -5.75,0.375 -5.75,0.375 l -3.6875,-0.6875 c -0.770398,-0.47902 -1.611058,-0.97577 -2.75,-1.5625 -2.94643,-1.51785 -4.30357,-1.96875 -5.375,-2.59375 -0.35509,-0.20713 -0.80455,-0.37931 -1.28125,-0.625 l 0,5.96875 0.5625,0.0312 c 1.33928,0 3.85714,0.87947 4.75,1.59375 0.514557,0.41165 0.960299,0.70303 1.40625,1.03125 l 0,0.4375 c 0.263324,0.0452 0.511103,0.14032 0.78125,0.21875 0.0713,0.0659 0.14612,0.11487 0.21875,0.1875 0.80357,0.80357 2.23214,1.52679 2.5,2.6875 0.26786,1.16072 0.53125,1.95536 0.53125,3.5625 0,1.60715 1,1.33482 -0.875,3.03125 -1.875,1.69643 -2.33482,0.98661 -4.03125,2.59375 -1.69643,1.60715 -2.04464,1.17857 -2.9375,2.875 -0.89286,1.69643 -0.897321,2.66072 -2.59375,3.375 -0.12003,0.0505 -0.20617,0.13034 -0.3125,0.1875 l 0,25.31249 c 0.66683,0.3772 0.73249,1.3175 1.1875,2 0.53571,0.8036 0.71875,1.0848 2.59375,2.7813 1.875,1.6964 1.97321,1.1696 2.6875,1.4375 0.20989,0.079 1.09045,0.3788 1.78125,0.625 l 12.78125,0 c 0.3793,-1.1741 0.78125,-2.25 0.78125,-2.25 0,0 1.89732,-4.8304 2.34375,-5.1875 0.305684,-0.2446 0.969843,-1.964 1.46875,-3.25 0.89699,-0.217 1.687074,-0.4063 3.03125,-0.4063 1.607142,0 1.334821,-1 3.03125,0.875 1.696429,1.875 0.986607,2.3348 2.59375,4.0313 1.607143,1.6964 1.178571,2.0446 2.875,2.9375 1.696428,0.8928 2.660714,0.8973 3.375,2.5937 0.05054,0.12 0.130338,0.2062 0.1875,0.3125 l 8.90625,0 c 0.0034,0.097 -0.0044,0.2553 0,0.3438 l 6.90625,0 c -0.0012,-0.052 -0.0016,-0.1048 0,-0.1563 l 0.625,0 c 0.011,-0.064 0.04774,-0.1245 0.0625,-0.1875 l 8.8125,0 c 0.377184,-0.6668 1.317479,-0.7325 2,-1.1875 0.474837,-0.3165 0.80266,-0.5391 1.3125,-1.0312 0.236,1.0029 0.35265,1.6169 0.40625,2.4062 l 3.4375,0 c -0.60945,-1.6596 -0.90625,-3.1623 -0.90625,-5.1562 0,-0.4241 -0.01972,-0.8617 -0.0625,-1.3125 -9.39e-4,-0.01 9.55e-4,-0.021 0,-0.031 0.01303,-0.052 0.0089,-0.097 0.03125,-0.1562 0.07871,-0.2099 0.378876,-1.0905 0.625,-1.7813 l 0,-8.9062 c 1.336601,-2.757 1.69459,-4.3682 2.8125,-5.4063 1.25,-1.1607 1.32589,-2.0536 3.46875,-3.125 2.14286,-1.0714 3.58929,-1.4375 4.75,-1.4375 1.16072,0 2.57589,-0.3482 3.46875,0.8125 0.89286,1.1607 1.4375,2.683 2.0625,4.4688 0.624997,1.7857 0.892857,4.0267 1.874997,5.1875 0.98214,1.1607 1.59822,2.2232 3.5625,3.5625 1.96429,1.3392 3.20982,2.3259 6.15625,3.8437 2.94643,1.5179 4.30357,1.9688 5.375,2.5938 0.35509,0.2071 0.80456,0.3793 1.28125,0.625 l 0,-5.9688 -0.5625,-0.031 c -1.33928,0 -3.85714,-0.8795 -4.75,-1.5938 -0.89286,-0.7143 -1.60268,-1.0714 -2.40625,-1.875 -0.80357,-0.8036 -2.23214,-1.5268 -2.5,-2.6875 -0.26786,-1.1607 -0.53125,-1.9553 -0.53125,-3.5625 0,-1.6071 -1,-1.3348 0.875,-3.0312 1.875,-1.6965 2.33482,-0.9866 4.03125,-2.5938 1.69643,-1.6071 2.04464,-1.1786 2.9375,-2.875 0.89286,-1.69642 0.89733,-2.66071 2.59375,-3.37499 0.12003,-0.0505 0.20617,-0.13034 0.3125,-0.1875 l 0,-25.3125 c -0.66682,-0.37719 -0.73249,-1.31748 -1.1875,-2 -0.53571,-0.80357 -0.71875,-1.08482 -2.59375,-2.78125 -1.875,-1.69643 -1.97321,-1.16965 -2.6875,-1.4375 -0.20989,-0.0787 -1.09045,-0.37888 -1.78125,-0.625 l -11.937497,0 c -0.141428,-0.0589 -0.350446,-0.16908 -0.71875,-0.1875 z m 8.187497,4.46875 c 5.823,0 10.5625,6.8155 10.5625,15.21875 0,8.40324 -4.7395,15.21875 -10.5625,15.21875 -5.822996,0 -10.531247,-6.81551 -10.531247,-15.21875 0,-8.40325 4.708251,-15.21875 10.531247,-15.21875 z m -64.062497,7.625 c 1.874722,0 3.643889,0.42259 5.1875,1.125 -0.0337,1.20251 -0.218385,2.36803 -0.78125,3.4375 -1.78572,3.39286 -2.0625,5.27679 -3.3125,6.4375 -1.25,1.16072 -1.32589,2.05357 -3.46875,3.125 -2.14286,1.07143 -3.58929,1.4375 -4.75,1.4375 -0.240208,0 -0.494881,0.018 -0.75,0.0312 -0.01091,-0.01 -0.02031,-0.0215 -0.03125,-0.0312 -0.318554,0.064 -0.627001,0.12131 -0.875,0.0937 -0.803571,-0.0893 -1.066965,-0.009 -2.40625,-0.1875 -1.339286,-0.17857 -1.964286,-0.5491 -3.125,-1.53125 -1.160715,-0.98214 -0.700893,-0.62946 -1.59375,-1.34375 -0.892857,-0.71428 -0.28125,-1.67857 -0.28125,-2.75 l 0,-3.40625 c 0,-1.16071 0.0089,-0.69196 0.1875,-1.40625 0.178571,-0.71428 0.178571,-0.64732 0.625,-1.09375 0.446429,-0.44642 2.491071,0 2.9375,0 0,0 0.230345,0.23208 0.25,0.25 0.169077,-0.0172 0.284826,-0.0441 0.46875,-0.0625 2.678571,-0.26785 2.611608,-0.81696 2.96875,-0.90625 0.06517,-0.0163 0.559893,-0.2141 0.8125,-0.3125 1.988135,-1.78939 4.798715,-2.90625 7.9375,-2.90625 z m 27.9375,0.8125 c 1.696429,0 5.366071,0.8884 5.8125,1.15625 0.446428,0.26786 3.375,2.5 6.5,2.5 0.728299,0 1.276142,-0.009 1.71875,-0.0312 0.02158,0.0139 0.04049,0.0166 0.0625,0.0312 1.339285,0.89286 2.241071,1.09375 3.3125,1.71875 1.071429,0.625 1.330357,0.34822 2.3125,1.6875 0.915999,1.24909 1.602554,2.13216 2.125,2.6875 0.157977,1.18847 0.34375,2.28125 0.34375,2.28125 l -0.4375,6.6875 c 0,0 -1.52232,2.22321 -1.96875,2.3125 -0.44643,0.0893 -2.83928,-0.35715 -3.375,-0.625 -0.53571,-0.26786 -3.04911,-2.57143 -3.40625,-2.75 -0.251862,-0.12593 -2.218059,-1.22969 -3.65625,-2.03125 -0.928824,0.0449 -2.196689,-0.4375 -3.625,-0.4375 -2.053571,0 -2.589285,0.10268 -4.375,-0.34375 -1.785714,-0.44642 -1.709821,-0.35714 -2.78125,-1.25 -1.071428,-0.89285 -0.1875,-1.16517 -0.1875,-1.96875 0,-0.80357 -0.625,-1.25446 -1.25,-2.59375 -0.625,-1.33928 -0.602678,-1.35267 -1.40625,-2.15625 -0.803571,-0.80357 -0.625,-1.4241 -0.625,-2.40625 l 0,-2.0625 c 0,-0.71428 0.169643,-1.15178 0.4375,-1.6875 0.216649,-0.43329 0.884459,-0.23608 1.46875,-0.1875 1.118787,-0.28374 2.264446,-0.53125 3,-0.53125 z m -17.15625,1.59375 c 0.3125,-0.0112 0.669643,0.0312 1.25,0.0312 1.160715,0 1.607143,0.0759 3.125,0.34375 1.517858,0.26786 2.053572,1.06697 3.125,1.78125 0.925325,0.61689 0.925368,2.16455 0.90625,2.59375 0.0421,0.10357 0.08507,0.21267 0.125,0.3125 0.37881,0.94701 1.83994,3.58423 2.21875,4.53125 0.37881,0.94701 -6.4e-4,4.48477 0.0625,6 0.0074,0.1774 -0.0029,0.31354 0,0.46875 -0.0487,0.0873 -0.105577,0.16453 -0.15625,0.25 0.139897,1.07328 0.235561,2.2718 0.15625,2.90625 -0.08929,0.71429 -0.723214,1.34375 -1.4375,1.96879 -0.714285,0.625 -1.78125,0.7232 -2.40625,0.8125 -0.625,0.089 -1.348215,-0.022 -2.6875,-0.4688 -1.339286,-0.4464 -1.857143,-0.3437 -3.375,-0.3437 -1.517858,0 -3.227678,0.2768 -4.65625,-0.43754 -1.428571,-0.71428 -0.888393,-1.52678 -1.15625,-2.6875 -0.267857,-1.16071 -0.361607,-1.44196 -0.71875,-2.15625 -0.120666,-0.24133 -0.03226,-1.15724 0.09375,-2.21875 -0.339027,-1.14435 -0.53125,-2.37369 -0.53125,-3.65625 0,-3.42801 1.32089,-6.47075 3.40625,-8.46875 0.07328,-0.27624 0.100079,-0.50127 0.15625,-0.75 0.08968,0.088 0.164147,0.19048 0.25,0.28125 0.03681,-0.0616 0.09866,-0.16115 0.125,-0.1875 0.446429,-0.44642 0.352678,-0.17857 1.15625,-0.625 0.401786,-0.22321 0.65625,-0.27008 0.96875,-0.28125 z m -10.03125,15.03125 c 0.34309,0.026 0.691964,0.18973 1.09375,0.625 1.071429,1.16072 0.473215,0.70983 0.5625,1.78125 0.08929,1.07143 0.0625,1.07143 0.0625,1.875 0,0.80358 -0.15625,1.24108 -0.15625,2.31254 0,1.05 -0.09032,1.0313 -0.09375,2.625 0.657349,1.5281 0.90625,2.6869 0.90625,3.625 0,1.0977 0.291845,2.4166 -0.65625,3.3125 l 0,1.0625 c 0,0.7143 -0.0759,0.9866 -0.34375,1.3437 -0.267857,0.3572 -0.191964,0.8973 -0.90625,1.3438 -0.714286,0.4464 -1.071429,0.6964 -1.875,0.875 -0.803571,0.1785 -0.964286,0.1875 -1.5,0.1875 -0.535714,0 -1.084822,0.01 -1.53125,-0.4375 -0.446429,-0.4465 -0.691964,-1.0625 -0.78125,-1.6875 -0.08928,-0.625 -0.09375,-1.5313 -0.09375,-2.1563 l 0,-2.8437 0,-2.9688 c 0,-0.625 -0.200893,-1.7768 -0.46875,-2.3125 -0.267857,-0.5357 -0.424108,-0.7277 -0.78125,-1.5312 -0.357143,-0.8036 -0.647321,-1.0491 -1.09375,-2.03129 -0.446429,-0.98214 -0.875,-1.80803 -0.875,-2.34375 0,-0.53571 -0.01339,-0.7366 0.96875,-1.09375 0.982143,-0.35714 0.549107,-0.50892 1.53125,-0.6875 0.982143,-0.17857 1.071428,-0.25 1.875,-0.25 0.803571,0 1.151786,-0.19196 2.3125,-0.28125 0.725447,-0.0558 1.271934,-0.38703 1.84375,-0.34375 z m 31.1875,1.6875 c 5.09076,0 9.21875,4.90529 9.21875,10.93749 0,0.9023 -0.108392,1.7569 -0.28125,2.5938 -0.03519,-0.012 -0.0554,-0.018 -0.09375,-0.031 l 0,0.3438 c 0,0.4464 -0.4375,1.3437 -0.4375,1.3437 0,0 -1.419643,1.8616 -1.6875,2.2188 -0.222766,0.297 -1.056813,1.8886 -1.375,2.5 0.07345,0.2262 0.135305,0.4558 0.1875,0.6875 -0.04537,0.1855 -0.122739,0.4101 -0.1875,0.625 0.185386,0.5929 0.417159,1.2638 0.46875,1.625 0.08929,0.625 0.09375,1.8125 0.09375,2.4375 0,0.625 -0.361607,1.2232 -0.71875,1.9375 -0.357143,0.7142 -0.883929,1.8928 -1.0625,2.25 -0.178572,0.3571 -1.696429,1.2366 -2.5,1.5937 -0.803572,0.3572 -1.272321,0.7322 -1.71875,1 -0.446429,0.2679 -2.482143,1.1563 -3.375,1.1563 -0.892857,0 -1.066965,-0.1027 -2.40625,-0.2813 -1.339286,-0.1786 -0.375,-0.3348 -0.375,-0.7812 0,-0.4465 0.09821,-0.8974 0.1875,-1.3438 0.08929,-0.4464 0.446429,-0.7991 0.625,-1.1562 0.110529,-0.2211 0.34309,-0.6759 0.59375,-1.125 0.02842,-0.2832 0.04589,-0.5265 0.0625,-0.7813 0.108283,-0.1875 0.24326,-0.3727 0.34375,-0.5937 0.63134,-1.389 0.46811,-3.4204 0.53125,-5.125 0.0631,-1.7047 -0.27998,-1.4548 -0.40625,-2.8438 -0.12627,-1.3889 -0.68369,-2.3342 -1.0625,-3.2812 -0.337514,-0.8438 -1.506402,-2.9575 -2.03125,-4.0938 0.01049,10e-4 0.02077,-10e-4 0.03125,0 -0.198591,-0.2905 -0.369751,-0.5718 -0.46875,-0.75 -0.446433,-0.8036 -0.09375,-1.8795 -0.09375,-2.5937 0,-0.2624 0.09683,-0.427 0.21875,-0.5625 0.03952,-0.9635 0.08786,-1.9227 0.0625,-2.5313 -0.0074,-0.1774 0.0029,-0.3135 0,-0.4687 1.650388,-2.9568 4.444081,-4.90629 7.65625,-4.90629 z m -50.125,0.5625 c 5.823,0 10.53125,6.81549 10.53125,15.21879 0,1.1171 -0.09202,2.2012 -0.25,3.25 -0.946851,0.7548 -1.885953,1.4598 -3,3.0937 -1.339285,1.9643 -2.325893,3.2098 -3.84375,6.1563 -0.484998,0.9414 -0.848634,1.6843 -1.15625,2.3437 -0.742921,0.2399 -1.487848,0.375 -2.28125,0.375 -5.823,0 -10.5625,-6.8155 -10.5625,-15.2187 0,-8.4033 4.7395,-15.21879 10.5625,-15.21879 z m 29.09375,7.65629 c 0.23019,0 0.491071,0 0.78125,0 1.160714,0 2.839285,1.4241 3.375,1.7812 0.535714,0.3572 2.049107,2.1384 2.40625,2.4063 0.113069,0.085 0.415857,0.4439 0.75,0.875 0.704277,0.4368 1.537541,0.9678 2.09375,1.375 0.29669,1.4276 0.713047,3.0155 0.875,3.9062 0.237019,1.3036 0.454439,2.1571 1,4.125 -0.25406,1.7916 -0.794205,4.032 -1,4.375 -0.01882,0.031 -0.08834,0.1637 -0.125,0.2188 2.3e-4,0.01 0,0.1178 0,0.125 0,0.7143 -0.1875,2.1339 -0.1875,2.9375 0,0.8035 -0.638393,1.0803 -0.90625,1.4375 -0.267857,0.3571 -0.96875,1 -0.96875,1 0,0 -1.526786,-0.098 -2.0625,-0.1875 -0.143187,-0.024 -0.689463,-0.4274 -1.40625,-0.9688 -3.116996,-1.1115 -5.591223,-2.9498 -7,-5.1875 -0.33941,-0.2964 -0.694171,-0.6317 -1.0625,-1 -0.803571,-0.8036 -0.959822,-1.5178 -1.40625,-2.5 -0.446425,-0.9821 -0.53125,-2.8527 -0.53125,-4.2812 0,-1.4286 -0.01786,-3.0402 0.25,-3.8438 0.267858,-0.8036 0.97321,-3.0312 1.0625,-3.6562 0.08929,-0.625 0.991072,-1.5982 2.0625,-2.3125 0.803572,-0.5357 1.309431,-0.6167 2,-0.625 z"
       id="rect2982"
       inkscape:connector-curvature="0" />
  </g>
</svg>
